<svg height='100px' width='100px'  fill="#000000" xmlns="http://www.w3.org/2000/svg" xmlns:xlink="http://www.w3.org/1999/xlink" xml:space="preserve" version="1.1" style="shape-rendering:geometricPrecision;text-rendering:geometricPrecision;image-rendering:optimizeQuality;" viewBox="0 0 847 847" x="0px" y="0px" fill-rule="evenodd" clip-rule="evenodd"><defs><style type="text/css">
   
    .fil0 {fill:#000000}
   
  </style></defs><g><path class="fil0" d="M253 219c-32,142 57,224 77,247 20,23 17,79 -4,95 -21,16 -202,84 -219,119 -17,36 -22,82 -22,82l338 -1 339 1c0,0 -6,-46 -23,-82 -17,-35 -197,-103 -218,-119 -21,-16 -24,-72 -4,-95 19,-23 109,-105 76,-247 -41,-180 -298,-180 -340,0z"></path></g></svg>