<svg height='100px' width='100px'  fill="currentColor" xmlns="http://www.w3.org/2000/svg" xmlns:xlink="http://www.w3.org/1999/xlink" version="1.1" x="0px" y="0px" viewBox="0 0 80 80" enable-background="new 0 0 80 80" xml:space="preserve"><g><g><path d="M31.96,40.001c-0.552,0.021-0.981,0.487-0.959,1.039l0.982,24.563L30,67.586l-1.983-1.983l0.982-24.563    c0.022-0.552-0.407-1.018-0.959-1.039c-0.539-0.039-1.017,0.406-1.039,0.959l-1,25c-0.012,0.279,0.095,0.55,0.292,0.747l3,3    C29.488,69.902,29.744,70,30,70s0.512-0.098,0.707-0.293l3-3c0.197-0.197,0.304-0.468,0.292-0.747l-1-25    C32.977,40.407,32.5,39.961,31.96,40.001z"></path><path d="M18.29,68.29C18.109,68.479,18,68.74,18,69s0.109,0.52,0.29,0.71C18.479,69.89,18.729,70,19,70    c0.26,0,0.52-0.11,0.71-0.29C19.89,69.52,20,69.26,20,69s-0.11-0.521-0.29-0.71C19.33,67.92,18.66,67.92,18.29,68.29z"></path><path d="M52.293,12.293L47,17.586l-1.293-1.293c-0.391-0.391-1.023-0.391-1.414,0s-0.391,1.023,0,1.414l2,2    C46.488,19.902,46.744,20,47,20s0.512-0.098,0.707-0.293l6-6c0.391-0.391,0.391-1.023,0-1.414S52.684,11.902,52.293,12.293z"></path><path d="M69,14h-8c-0.553,0-1,0.447-1,1s0.447,1,1,1h8c0.553,0,1-0.447,1-1S69.553,14,69,14z"></path><path d="M61,20h6c0.553,0,1-0.447,1-1s-0.447-1-1-1h-6c-0.553,0-1,0.447-1,1S60.447,20,61,20z"></path><path d="M56.29,14.29C56.109,14.479,56,14.74,56,15s0.109,0.52,0.29,0.71C56.479,15.89,56.74,16,57,16c0.27,0,0.52-0.11,0.71-0.29    C57.89,15.52,58,15.26,58,15s-0.11-0.521-0.29-0.71C57.34,13.92,56.66,13.92,56.29,14.29z"></path><path d="M52.293,24.293L47,29.586l-1.293-1.293c-0.391-0.391-1.023-0.391-1.414,0s-0.391,1.023,0,1.414l2,2    C46.488,31.902,46.744,32,47,32s0.512-0.098,0.707-0.293l6-6c0.391-0.391,0.391-1.023,0-1.414S52.684,23.902,52.293,24.293z"></path><path d="M69,26h-8c-0.553,0-1,0.447-1,1s0.447,1,1,1h8c0.553,0,1-0.447,1-1S69.553,26,69,26z"></path><path d="M61,32h6c0.553,0,1-0.447,1-1s-0.447-1-1-1h-6c-0.553,0-1,0.447-1,1S60.447,32,61,32z"></path><path d="M56.29,26.29C56.109,26.479,56,26.74,56,27s0.109,0.52,0.29,0.71C56.479,27.89,56.74,28,57,28s0.52-0.11,0.71-0.3    C57.89,27.52,58,27.26,58,27s-0.11-0.521-0.29-0.71C57.33,25.92,56.67,25.92,56.29,26.29z"></path><path d="M52.293,36.293L47,41.586l-1.293-1.293c-0.391-0.391-1.023-0.391-1.414,0s-0.391,1.023,0,1.414l2,2    C46.488,43.902,46.744,44,47,44s0.512-0.098,0.707-0.293l6-6c0.391-0.391,0.391-1.023,0-1.414S52.684,35.902,52.293,36.293z"></path><path d="M69,38h-8c-0.553,0-1,0.447-1,1s0.447,1,1,1h8c0.553,0,1-0.447,1-1S69.553,38,69,38z"></path><path d="M69,42h-8c-0.553,0-1,0.447-1,1s0.447,1,1,1h8c0.553,0,1-0.447,1-1S69.553,42,69,42z"></path><path d="M56.29,38.29C56.109,38.479,56,38.74,56,39c0,0.27,0.109,0.52,0.29,0.71C56.479,39.89,56.729,40,57,40    c0.27,0,0.52-0.11,0.71-0.29C57.89,39.52,58,39.27,58,39c0-0.26-0.11-0.521-0.29-0.71C57.34,37.92,56.66,37.92,56.29,38.29z"></path><path d="M52.293,48.293L47,53.586l-1.293-1.293c-0.391-0.391-1.023-0.391-1.414,0s-0.391,1.023,0,1.414l2,2    C46.488,55.902,46.744,56,47,56s0.512-0.098,0.707-0.293l6-6c0.391-0.391,0.391-1.023,0-1.414S52.684,47.902,52.293,48.293z"></path><path d="M69,50h-8c-0.553,0-1,0.447-1,1s0.447,1,1,1h8c0.553,0,1-0.447,1-1S69.553,50,69,50z"></path><path d="M61,56h4c0.553,0,1-0.447,1-1s-0.447-1-1-1h-4c-0.553,0-1,0.447-1,1S60.447,56,61,56z"></path><path d="M56.29,50.29C56.109,50.479,56,50.729,56,51c0,0.27,0.109,0.52,0.29,0.71C56.479,51.89,56.729,52,57,52    c0.26,0,0.52-0.11,0.71-0.29C57.89,51.52,58,51.26,58,51s-0.11-0.521-0.29-0.71C57.33,49.92,56.66,49.92,56.29,50.29z"></path><path d="M52.293,60.293L47,65.586l-1.293-1.293c-0.391-0.391-1.023-0.391-1.414,0s-0.391,1.023,0,1.414l2,2    C46.488,67.902,46.744,68,47,68s0.512-0.098,0.707-0.293l6-6c0.391-0.391,0.391-1.023,0-1.414S52.684,59.902,52.293,60.293z"></path><path d="M69,62h-8c-0.553,0-1,0.447-1,1s0.447,1,1,1h8c0.553,0,1-0.447,1-1S69.553,62,69,62z"></path><path d="M67,66h-6c-0.553,0-1,0.447-1,1s0.447,1,1,1h6c0.553,0,1-0.447,1-1S67.553,66,67,66z"></path><path d="M56.29,62.29C56.109,62.479,56,62.729,56,63c0,0.26,0.109,0.52,0.29,0.71C56.479,63.89,56.74,64,57,64    s0.52-0.11,0.71-0.29C57.89,63.52,58,63.26,58,63s-0.11-0.521-0.29-0.71C57.33,61.92,56.67,61.92,56.29,62.29z"></path><path d="M41.399,38.048l-6.269-2.726v-2.298c0.842-0.635,2.364-2.218,3.407-5.817c0.361-0.442,1.189-1.582,1.473-3.013    c0.182-0.897,0.223-2.53-0.594-3.407c0.148-1.406,0.322-4.83-1.15-7.037C36.421,10.982,32.66,10,30,10s-6.421,0.982-8.267,3.75    c-1.472,2.207-1.299,5.631-1.15,7.037c-0.816,0.877-0.775,2.509-0.595,3.403c0.284,1.434,1.112,2.574,1.474,3.017    c1.043,3.6,2.565,5.183,3.407,5.817v2.298l-11.237,4.887C11.596,41.093,10,43.525,10,45.747V69c0,0.553,0.447,1,1,1h4    c0.553,0,1-0.447,1-1s-0.447-1-1-1h-3V45.747c0-1.411,1.135-3.143,2.429-3.704l11.839-5.148c0.365-0.159,0.602-0.519,0.602-0.917    v-3.499c0-0.377-0.234-0.733-0.571-0.903c-0.018-0.009-1.813-0.958-2.97-5.118c-0.043-0.151-0.122-0.294-0.229-0.41    c-0.009-0.01-0.902-0.999-1.149-2.249c-0.139-0.684-0.046-1.412,0.089-1.622c0.424-0.178,0.675-0.625,0.599-1.085    c-0.188-1.136-0.416-4.468,0.76-6.231C24.902,12.603,28.256,12,30,12s5.098,0.603,6.603,2.859c1.171,1.756,0.945,5.094,0.76,6.232    c-0.075,0.459,0.176,0.906,0.599,1.084c0.135,0.21,0.228,0.938,0.088,1.626c-0.246,1.246-1.14,2.235-1.146,2.243    c-0.108,0.116-0.188,0.258-0.23,0.412c-1.156,4.158-2.95,5.108-2.948,5.108c-0.36,0.16-0.593,0.519-0.593,0.913v3.499    c0,0.398,0.236,0.759,0.602,0.917l6.87,2.987c0.13,0.057,0.265,0.083,0.397,0.083c0.387,0,0.754-0.225,0.918-0.602    C42.139,38.857,41.906,38.268,41.399,38.048z"></path></g></g></svg>