<svg height='100px' width='100px'  fill="#000000" xmlns:x="http://ns.adobe.com/Extensibility/1.0/" xmlns:i="http://ns.adobe.com/AdobeIllustrator/10.0/" xmlns:graph="http://ns.adobe.com/Graphs/1.0/" xmlns="http://www.w3.org/2000/svg" xmlns:xlink="http://www.w3.org/1999/xlink" version="1.1" x="0px" y="0px" viewBox="0 0 100 100" style="enable-background:new 0 0 100 100;" xml:space="preserve"><g><g i:extraneous="self"><path d="M72.3,66.6h-9.1l-1-3.8C68.9,58,72.9,52.3,74,46c3.7-0.8,5.5-3.4,5.5-8c0-3.5-0.8-5.9-2.5-7.4c-0.7-0.6-1.8-1.3-3.4-1.5    c0.1-2.5,0-5.5-0.2-9.1c-0.1-1.9-0.4-3.5-0.9-4.9c0.6-2.8,0.9-5.9,0.4-8.3c-0.2-0.9-1.2-1.4-2-1.1c-0.5,0.2-1,0.3-1.5,0.5    c0.1-0.8,0.1-1.6,0.1-2.3c-0.1-1-1.2-1.6-2.1-1.2C63.3,4.1,57.5,5.5,50,5.5C37.7,5.5,27.7,6.1,26.7,20c-0.2,3.7-0.3,6.6-0.2,9.1    c-1.6,0.2-2.8,0.8-3.5,1.5c-1.7,1.5-2.5,3.9-2.5,7.4c0,4.6,1.8,7.2,5.5,8c1,6.2,5.1,12,11.8,16.8l-1,3.8h-9.1    c-9,0-16.2,7.3-16.2,16.2v8.8c0,3.2,2.6,5.9,5.8,5.9h65.4c3.2,0,5.8-2.6,5.8-5.9v-8.8C88.5,73.9,81.3,66.6,72.3,66.6z M59.5,69.6    c0.4,1.5-0.1,3.2-1.4,4.1L52.3,78c-1.4,1-3.3,1-4.7,0l-5.8-4.3c-1.3-1-1.8-2.6-1.4-4.1l1.2-4.6c2.6,1.1,5.4,1.8,8.3,1.8    c2.9,0,5.7-0.6,8.3-1.8L59.5,69.6z M30.2,44.4c-0.1-1.3-1.2-2.4-2.5-2.5c-1.6-0.2-2.8-0.3-2.8-3.9c0-2.8,0.7-3.9,1.1-4.2    c0.1-0.1,0.5-0.4,1.3-0.4c0.1,1.3,0.3,2.6,0.4,3.3c0.4,1.5,4.2,1.4,4.4,0.1c0.2-1.1-0.7-8.4,2.8-14.9c3.6,1.5,9,2.5,15.1,2.5    c6.1,0,11.5-1,15.1-2.5c3.5,6.5,2.6,13.8,2.8,14.9c0.2,1.3,4.1,1.4,4.4-0.1c0.2-0.7,0.3-1.9,0.4-3.3c0.8,0,1.1,0.3,1.3,0.4    c0.4,0.4,1.1,1.4,1.1,4.2c0,3.6-1.2,3.7-2.8,3.9c-1.3,0.1-2.4,1.2-2.5,2.5c-0.6,5.6-4.1,10.6-10.4,15.1c-5.6,3.9-13.3,3.9-18.9,0    C34.3,55,30.8,49.9,30.2,44.4z M84.2,91.6c0,0.8-0.7,1.5-1.5,1.5H17.3c-0.8,0-1.5-0.7-1.5-1.5v-8.8c0-6.6,5.3-11.9,11.9-11.9H36    c0.1,2.4,1.3,4.7,3.3,6.2l5.8,4.3c1.5,1.1,3.2,1.6,4.9,1.6c1.7,0,3.5-0.5,4.9-1.6l5.8-4.3c2-1.5,3.2-3.8,3.3-6.2h8.3    c6.6,0,11.9,5.3,11.9,11.9V91.6z"></path></g></g></svg>