<svg height='100px' width='100px'  fill="#ffffff" xmlns="http://www.w3.org/2000/svg" xmlns:xlink="http://www.w3.org/1999/xlink" version="1.1" x="0px" y="0px" viewBox="0 0 24 24" style="enable-background:new 0 0 24 24;" xml:space="preserve"><g><g><path d="M21,4H3C1.8954468,4,1,4.8954468,1,6v12c0,1.1045532,0.8954468,2,2,2h18c1.1045532,0,2-0.8954468,2-2V6    C23,4.8954468,22.1045532,4,21,4z M22,18c0,0.5513916-0.4486084,1-1,1H3c-0.5513916,0-1-0.4486084-1-1V6    c0-0.5513916,0.4486084-1,1-1h18c0.5513916,0,1,0.4486084,1,1V18z M15,8h5v1h-5V8z M15,11h5v1h-5V11z M17,14h3v1h-3V14z     M10.3041992,12.3388672l-0.0142822-0.1283569C11.0125122,11.7174072,11.5,10.8326416,11.5,9.8125    C11.5,8.2591553,10.3807373,7,9,7S6.5,8.2591553,6.5,9.8125c0,1.0201416,0.4875488,1.9049072,1.210083,2.3980103    l-0.0142212,0.1283569C5.5679321,12.6260986,4,13.5952148,4,14.75V17h10v-2.25    C14,13.5952148,12.4320679,12.6260986,10.3041992,12.3388672z M13,16H5v-1.25c0-0.4243164,1.0076294-1.1741943,2.8295898-1.420105    l0.7741089-0.1044922l0.1665039-1.5021362l-0.49646-0.3387451C7.7965088,11.0588379,7.5,10.4564819,7.5,9.8125    C7.5,8.8130493,8.1729126,8,9,8s1.5,0.8130493,1.5,1.8125c0,0.6439819-0.2964478,1.2463379-0.7737427,1.5720215    l-0.49646,0.3387451l0.1665039,1.5021362l0.7741089,0.1044922C11.9923706,13.5758057,13,14.3256836,13,14.75V16z"></path></g></g></svg>