<?xml version="1.0" encoding="UTF-8"?>
<svg width="52px" height="49px" viewBox="0 0 52 49" version="1.1" xmlns="http://www.w3.org/2000/svg" xmlns:xlink="http://www.w3.org/1999/xlink">
    <defs>
        <path d="M24.677907,48.4678372 C16.9511628,45.9887791 8.72325581,44.5945581 0.181395349,44.4669302 L0.181395349,44.4669302 L0.134883721,44.4595233 L0.134883721,0.487151163 L8.16802326,16.1472093 L5.10232558,15.6463837 L5.95,18.2342674 L9.54011628,18.8228372 L11.7959302,23.2197326 L7.34476744,22.4921395 L9.04825581,27.6884186 L14.5494186,28.5875116 L24.7534884,48.4803721 L24.677907,48.4678372 L24.677907,48.4678372 Z" id="path-1"></path>
        <linearGradient x1="34.4435012%" y1="88.039925%" x2="57.7103714%" y2="31.1453813%" id="linearGradient-3">
            <stop stop-color="#F0441D" offset="0%"></stop>
            <stop stop-color="#EE2239" offset="64.6545%"></stop>
            <stop stop-color="#EC086D" offset="100%"></stop>
        </linearGradient>
        <path d="M10.5755814,28.5875116 L16.0767442,27.6884186 L17.7796512,22.4921395 L13.3290698,23.2197326 L15.5848837,18.8228372 L19.175,18.2342674 L20.0226744,15.6463837 L16.9569767,16.1472093 L24.9901163,0.487151163 L24.9901163,44.4595233 L24.9430233,44.4669302 C16.4017442,44.5945581 8.17383721,45.9887791 0.447093023,48.4678372 L0.447093023,48.4678372 L0.371511628,48.4803721 L10.5755814,28.5875116 L10.5755814,28.5875116 Z" id="path-4"></path>
        <linearGradient x1="65.5561011%" y1="88.039925%" x2="42.2892309%" y2="31.1453813%" id="linearGradient-6">
            <stop stop-color="#F0441D" offset="0%"></stop>
            <stop stop-color="#EE2239" offset="64.6545%"></stop>
            <stop stop-color="#EC086D" offset="100%"></stop>
        </linearGradient>
    </defs>
    <g id="Style-Guide" stroke="none" stroke-width="1" fill="none" fill-rule="evenodd">
        <g id="Artboard" transform="translate(-137.000000, -407.000000)">
            <g id="fraktio-simple-logo-(1)" transform="translate(137.000000, 407.000000)">
                <g id="g3626" transform="translate(39.500000, 24.500000) scale(-1, 1) rotate(-180.000000) translate(-39.500000, -24.500000) translate(27.000000, 0.000000)">
                    <g id="g3628-Clipped">
                        <mask id="mask-2" fill="white">
                            <use xlink:href="#path-1"></use>
                        </mask>
                        <g id="path3632"></g>
                        <g id="g3628" mask="url(#mask-2)" fill="url(#linearGradient-3)" fill-rule="nonzero">
                            <g id="g3634">
                                <g id="g3636">
                                    <path d="M24.677907,48.4678372 C16.9511628,45.9887791 8.72325581,44.5945581 0.181395349,44.4669302 L0.181395349,44.4669302 L0.134883721,44.4595233 L0.134883721,0.487151163 L8.16802326,16.1472093 L5.10232558,15.6463837 L5.95,18.2342674 L9.54011628,18.8228372 L11.7959302,23.2197326 L7.34476744,22.4921395 L9.04825581,27.6884186 L14.5494186,28.5875116 L24.7534884,48.4803721 L24.677907,48.4678372 L24.677907,48.4678372 Z" id="path3646"></path>
                                </g>
                            </g>
                        </g>
                    </g>
                </g>
                <g id="g3648" transform="translate(12.500000, 24.500000) scale(-1, 1) rotate(-180.000000) translate(-12.500000, -24.500000) ">
                    <g id="g3650-Clipped">
                        <mask id="mask-5" fill="white">
                            <use xlink:href="#path-4"></use>
                        </mask>
                        <g id="path3654"></g>
                        <g id="g3650" mask="url(#mask-5)" fill="url(#linearGradient-6)" fill-rule="nonzero">
                            <g id="g3656">
                                <g id="g3658">
                                    <path d="M10.5755814,28.5875116 L16.0767442,27.6884186 L17.7796512,22.4921395 L13.3290698,23.2197326 L15.5848837,18.8228372 L19.175,18.2342674 L20.0226744,15.6463837 L16.9569767,16.1472093 L24.9901163,0.487151163 L24.9901163,44.4595233 L24.9430233,44.4669302 C16.4017442,44.5945581 8.17383721,45.9887791 0.447093023,48.4678372 L0.447093023,48.4678372 L0.371511628,48.4803721 L10.5755814,28.5875116 L10.5755814,28.5875116 Z" id="path3668"></path>
                                </g>
                            </g>
                        </g>
                    </g>
                </g>
            </g>
        </g>
    </g>
</svg>