<svg height='100px' width='100px'  fill="#ffffff" xmlns="http://www.w3.org/2000/svg" xmlns:xlink="http://www.w3.org/1999/xlink" version="1.1" x="0px" y="0px" viewBox="0 0 100 100" enable-background="new 0 0 100 100" xml:space="preserve"><path d="M41.167,82.902c9.335,0,27.45-4.182,39.55-9.85c0.252,3.074,0.434,5.568,0.568,7.172  c0.858,10.128-43.351,21.811-54.081,19.474c-10.73-2.336-23.746-55.997-19.315-61.92c1.698-2.271,4.685-4.441,8.452-6.426  c1.51,11.479,5.82,27.164,9.886,36.824c3.73,8.863,7.324,13.565,10.985,14.374C38.272,82.783,39.602,82.902,41.167,82.902  C41.167,82.902,41.167,82.902,41.167,82.902z M29.952,66.848c3.531,8.387,6.546,11.764,8.193,12.127  c0.754,0.167,1.771,0.252,3.022,0.252c9.097,0,27.976-4.561,39.206-10.16C78.813,51.93,75.178,23.842,65.833,21.42  c-8.72-2.262-30.996,1.631-45.682,8.102c0.275,2.377,0.711,5.209,1.357,8.532C23.485,48.217,26.641,58.982,29.952,66.848z   M92.983,61.149c-0.063-0.75-0.135-1.694-0.219-2.804c-0.541-7.094-1.547-20.296-3.814-32.295  C85.963,10.25,81.945,2.199,76.307,0.717C74.496,0.24,72.161,0,69.369,0C53.928,0,24.477,7.646,16.985,17.809  c-1.458,1.979-1.492,7.098-0.644,13.543c1.196-0.629,2.471-1.24,3.81-1.83c-0.679-5.859-0.385-8.936,0.14-9.648  c2.867-3.889,10.582-8.008,21.167-11.304c9.695-3.019,20.391-4.894,27.911-4.894c2.421,0,4.387,0.193,5.841,0.576  c2.188,0.575,6.368,4.254,9.805,22.43c2.232,11.813,3.229,24.894,3.766,31.922c0.084,1.117,0.157,2.071,0.221,2.828  c0.09,1.07-0.836,2.234-1.627,3.021c-1.577,1.566-4.022,3.127-7.002,4.613c0.128,1.409,0.242,2.745,0.345,3.986  c4.06-1.9,7.44-3.969,9.587-6.102C92.243,65.023,93.144,63.072,92.983,61.149z"></path></svg>