<svg height='100px' width='100px'  fill="#ffffff" xmlns="http://www.w3.org/2000/svg" xmlns:xlink="http://www.w3.org/1999/xlink" xml:space="preserve" version="1.1" style="shape-rendering:geometricPrecision;text-rendering:geometricPrecision;image-rendering:optimizeQuality;" viewBox="0 0 313 335" x="0px" y="0px" fill-rule="evenodd" clip-rule="evenodd"><defs><style type="text/css">
   
    .fil0 {fill:#ffffff;fill-rule:nonzero}
   
  </style></defs><g><path class="fil0" d="M47 3l0 16 126 0c6,-2 12,-4 18,-5l0 -11c16,0 31,0 47,0l0 2c21,-3 43,-5 68,-5l0 14c-25,0 -48,2 -68,5l0 0 68 0 0 14 -68 0 0 16c-16,0 -31,0 -47,0l0 -16 -15 0c-108,36 -135,115 -142,154l13 0 0 47c-16,0 -31,0 -47,0l0 -47 20 0c6,-38 30,-111 119,-154l-92 0 0 16c-16,0 -31,0 -47,0l0 -46c16,0 31,0 47,0zm261 187c7,2 6,12 -1,13l-105 21 -21 105c-2,7 -11,8 -14,1l-87 -218c-2,-6 4,-12 9,-9l219 87zm-209 -69l73 183 17 -87c1,-3 3,-5 6,-5l87 -18 -183 -73zm-66 80l-19 0 0 19 19 0 0 -19zm191 -184l-19 0 0 19 19 0 0 -19zm-191 0l-19 0 0 19 19 0 0 -19z"></path></g></svg>