<svg height='100px' width='100px'  fill="#ffffff" xmlns="http://www.w3.org/2000/svg" xmlns:xlink="http://www.w3.org/1999/xlink" version="1.1" x="0px" y="0px" viewBox="0 0 100 100" enable-background="new 0 0 100 100" xml:space="preserve"><path d="M58.442,84.302H7.491c-0.966,0-1.75-0.783-1.75-1.75c0-0.579,1.669-14.73,3.545-16.557  c3.021-2.939,9.077-4.541,11.789-5.137l0.446-6.446c-1.902-2.811-5.011-8.177-5.777-12.359c-0.018-0.097-1.654-9.949,1.04-15.907  c1.744-3.855,5.339-7.155,8.745-8.023c2.135-0.546,3.51,0.042,4.29,0.632c0.146,0.109,0.254,0.175,0.329,0.214  c0.161-0.164,0.392-0.48,0.556-0.704c0.542-0.74,1.215-1.66,2.339-2.089c5.172-1.97,11.252,2.412,14.346,7.539  c3.657,6.063,3.875,13.198,2.531,17.262c-1.071,3.238-4.078,10.486-6.167,13.748l0.757,6.137c2.552,0.64,8.415,2.336,11.53,5.073  c2.016,1.772,4.124,16.272,4.14,16.415c0.058,0.496-0.099,0.993-0.431,1.366C59.417,84.088,58.941,84.302,58.442,84.302z   M9.413,80.802h46.99c-0.635-3.749-2.051-10.966-2.791-12.341c-2.724-2.29-8.653-3.943-10.916-4.435  c-7.261,0.001-18.391,0.031-19.811,0.035c-2.353,0.425-8.459,1.942-11.049,4.338C11.155,69.789,9.874,77.224,9.413,80.802z   M24.798,57.761l-0.194,2.796c3.369-0.009,10.615-0.026,16.337-0.029l-0.361-2.926c-1.542,0.479-3.01-0.107-4.056-0.524  c-0.865-0.345-1.684-0.672-2.513-0.6c-3.076,0.268-4.097,1.291-4.107,1.302c-0.244,0.305-0.533,0.46-0.913,0.55  C28.046,58.553,26.398,58.56,24.798,57.761z M24.964,53.248c0.9,1.554,2.178,1.733,2.848,1.715c0.84-0.675,2.613-1.687,5.898-1.972  c1.666-0.149,3.021,0.398,4.113,0.835c1.456,0.582,1.813,0.723,2.45-0.169c0.101-0.252,0.265-0.521,0.52-0.801  c1.712-2.656,4.682-9.59,5.803-12.98c1.108-3.35,0.712-9.519-2.205-14.354c-2.684-4.45-7.215-7.172-10.102-6.077  c-0.171,0.08-0.541,0.584-0.761,0.886c-0.6,0.819-1.42,1.94-2.855,2.151c-0.957,0.143-1.954-0.174-2.963-0.936  c-0.229-0.173-0.72-0.187-1.315-0.033c-2.013,0.513-4.948,2.816-6.42,6.073c-1.943,4.299-1.1,12.127-0.787,13.835  c0.75,4.092,4.328,9.773,5.661,11.645c0.021,0.028,0.041,0.058,0.06,0.088C24.927,53.185,24.946,53.216,24.964,53.248z   M75.688,77.51H63.708c-0.966,0-1.75-0.783-1.75-1.75s0.784-1.75,1.75-1.75h9.404c-0.631-0.717-1.615-1.423-2.922-1.917  c-0.681-0.257-1.131-0.909-1.131-1.637V67.36c0-0.967,0.784-1.75,1.75-1.75h19.134c0.532,0,0.816-1.004,0.816-1.729V60.36H50.86  c-0.966,0-1.75-0.783-1.75-1.75s0.784-1.75,1.75-1.75h39.898V28.968c0-0.739-0.069-0.808-0.816-0.808H53.958  c-0.966,0-1.75-0.783-1.75-1.75s0.784-1.75,1.75-1.75h35.984c2.662,0,4.316,1.65,4.316,4.308v34.914  c0,3.029-1.815,5.229-4.316,5.229H72.559v0.202c2.961,1.473,4.879,3.958,4.879,6.447C77.438,76.727,76.654,77.51,75.688,77.51z"></path></svg>